<svg width="18" height="18" viewBox="0 0 18 18" fill="none" xmlns="http://www.w3.org/2000/svg">
<path d="M11.6193 7.19118C11.8131 7.28518 11.9581 7.48173 11.9907 7.70171C12.0268 7.91728 11.956 8.14939 11.8041 8.30211C11.0348 9.09052 10.2622 9.87561 9.49264 10.6637C9.34371 10.8242 9.11939 10.9033 8.90754 10.8658C8.73153 10.8402 8.58685 10.7233 8.45411 10.6089C7.70177 9.83978 6.94783 9.07205 6.19601 8.30239C6.02425 8.13037 5.95815 7.85774 6.02664 7.62122C6.09885 7.35355 6.34069 7.1468 6.60829 7.12777C6.80739 7.10848 7.00995 7.1909 7.14693 7.34142C7.76468 7.97214 8.38297 8.60204 8.99992 9.23386C9.5898 8.62905 10.1826 8.02727 10.7725 7.42274C10.8455 7.35051 10.9137 7.27029 11.0024 7.21847C11.1871 7.10517 11.4261 7.09442 11.6193 7.19118Z" fill="#78818E"/>
</svg>
